<svg xmlns="http://www.w3.org/2000/svg" viewBox="0 0 2811.31 1064.38"><g id="Layer_2" data-name="Layer 2"><g id="Layer_1-2" data-name="Layer 1"><path d="M2529.5,457.55c16.8-7,18.46-19.59,21.36-32.79,7.43-33.85,10.09-69,26.27-100.59,2-3.84,1.78-7.06,1-11.33-3.38-18.91-3.3-36.23,6.44-55.26,8.13-15.86,7.18-36.87,8.19-55.71.83-15.36,2.5-30.19,8.45-44.38,1.49-3.54,4-6.09,3.06-11-6.3-32.88,7.94-59,28.5-82.8,8.51-9.83,12.79-23.18,26.11-32,17.35,18.33,15.14,42,20.78,63,12.64,47-1.63,93-3.75,139.52-2.07,45.58-20.6,87.78-24.09,132.83-1.73,22.34-4.29,44.23-21.43,61.1,7.26,17.45-7.81,29-11.63,43.48-8.79,33.44-34.52,54.19-58.8,75.47-11.88,10.39-50,8.68-63.13-2.12-28.17-23.21-49.05-51.14-52.87-89.16-1.62-16.07-4.37-32-6.86-49.94-11.66,17.63-17.34,36.3-25.45,53.91-7.8,17-19.51,42-31.67,49.73s-28-4.94-42-1.73c-23.63,5.43-41.6-8.33-56.05-26.13-3.18-3.92-6.76-8.21-8-12.9-9.73-36.33-31-70.16-24.12-110.14.34-2,.66-4.27,0-6.06-14.84-40.4-3.4-82.59-8.59-123.56-2.53-20-.37-39.11,3.79-58.45,3.54-16.49-1.81-33-.43-50,1.23-15.07,5.47-31,1.36-47.24-6.49-25.64,12.08-37.89,30.67-48.65,6.69-3.87,15.72-3.37,18.9,4,5.71,13.2,17.66,22.51,17.39,39.83-.86,54.49-.29,109.08,2.37,163.5,1.11,22.63,2.28,45.49,7,68.29,5.46,26.44,1.39,54.53,8.73,81.21,1.3,4.74-.22,10.3,4.47,14.45,5.23,2.58,11.18.64,12.45-4.21,11.53-44,31.79-85.06,41.77-129.46,1.37-6.13,4.48-11.09,7.21-16.52,5.72-11.41,10-22.18,8.93-37.06-1.56-21,12.28-40,25-56.75,8.7-11.46,14.71-23.8,20.71-36.9,8.51-2.13,14.86,6.5,25.51,3,18-6,28.95,3,29.91,22,1,20.15.93,40.57-1.4,60.55-1,9-2.3,17.42-.89,26.46,4.71,30.38-2.89,61.22,4.28,91.77,6.48,27.63,2.85,56.4,5.84,84.39C2516.71,421.37,2524.25,439,2529.5,457.55Z"/><path d="M2252.79,910.12c-12.71-7-30.26-3.14-45.21-6.51s-28.41,7-44.47,4.5c-16.9-63.18,9.26-125.5.66-186.86,5.38-3.87,9.37-8.74,14.09-9.8q19.08-4.32,38.26-8,9.95-1.92,19.89-3.71c5.46-1,14.65-.37,13.6-9.16-.32-2.75-1.48-5.33-1.7-8.09-.18-2.3.3-4.63.08-6.93-.51-5.45-4.86-5.22-8.57-6.91l-12.2-5.57q-12.16-5.56-24.36-11.08c-11-5-21.93-11.46-33.69-14.15-10.31-2.35-20.59.2-30.93.73s-19.9-2.37-30.26-.89c-34.18,4.88-64.83,29.08-87.49,56.06a11.37,11.37,0,0,0-2.47,4c-1.22,4.2,2.22,8.24,5.66,10.56,10.84,7.3,23.9,8.13,36.25,9.81,4.64.63,39.23,4.19,39.7,6.44,4.86,23.49-3.41,44.51-2.13,66.29,2.26,38.27-4.14,76.28-8.29,114.3-1.62,14.86-7.31,22-22.73,20.47s-31,.64-46.48,1c-11.48.27-17.58,6.5-18.31,18.8-.75,12.52-3.4,26.93,12.28,30.68,18.15,4.34,37.3,11.48,55,8.9,50.63-7.39,102.17-5.59,152.21-19.8,24.24-6.89,44.65-21,67.55-29.86C2284.34,911.49,2264.47,916.59,2252.79,910.12Z"/><path d="M2489,663.74c-10-26.13-19.83-28.25-41.95-10.62-21.62,17.22-31,41.39-36.83,67.06-8.37,36.82-25.91,69.84-39.09,104.65-.57,1.51-5.11,1.44-8.55,2.3-11.72-18.77-16.24-38.61-16.82-60.46-.77-29.06-21.46-54-16.58-85.47,1.07-6.89-6.26-23.94-18.5-27-10.93-2.76-18.47,6.79-27.49,12.94-7.31,5-6.4,15.13-4.78,22.83,2.2,10.5,1.78,19.49.79,30.19-2.48,26.88,5.33,52.14,9,78.47,3.3,23.83,5.72,47.66,14.49,70.24a32.39,32.39,0,0,1,1.7,9c2.18,26.55,11.12,51.06,21.85,74.92,12.33,27.4,32.76,36.8,56.72,24.92,11-5.46,20.76-14.82,23.8-27.77,4-17.18,11.58-33.12,16.6-49.94,18.6-62.24,42-123,63.76-184.23C2493.57,697.47,2494.59,678.38,2489,663.74Z"/><path d="M2023.51,638.07a13.07,13.07,0,0,0-3.32-2.46c-6.72-3.49-15.06-2.75-22.33-4-9-1.49-17.74-3.91-26.61-5.88-13.5-3-27.75-4.91-41-1-7.77,2.29-14.93,6.51-22.85,8.22-12.08,2.59-18.35-6.7-28.6-10.44-5.76-2.1-12.15-1.3-18.12.1-13.43,3.17-26.11,9.27-39.81,11.34-14.77,2.24-30.07,1.94-45,3.17-13.85,1.14-19.51,7.72-22.65,18.73-7,24.58,8.19,44.7,39.45,44.88,12.7.07,25.63.48,38.42-.26,15.06-.88,18.79,8.25,17.54,20.83-3,30.42-7,60.73-10,91.16-3.92,40.69-8.38,81.37-8.27,122.34a70,70,0,0,0,6.49,28.92c2.93,6.35,12.69,29.07,21.58,20.12,17.51-17.61,21.26-39.6,24-63.52,3.49-30,6.28-60,9.45-90,1.22-11.62,2.07-23.28,2.24-35,.15-10.25-.23-20.5-1-30.71-.57-7.48-1.36-15-.82-22.47.67-9.34,3-29.73,11.3-35.54,3-2.12,6.7-3.11,10.3-3.93,27-6.14,55.45-5.9,80.54-19.12a59,59,0,0,0,19.36-16.67c4.17-5.46,13.23-16.77,12.14-24A9.1,9.1,0,0,0,2023.51,638.07Z"/><path d="M2754.71,800.22c-15.74,15-34.71,15.83-49.4,26.72-4.9,3.63-8.91,3-13.18-1.26-3-3-6.86-4.36-10.86-1.55-27.24,19.17-57.45,12.17-86.56,12.1-15.3,0-18.86,4.12-19.59,21.4-.64,15.3-7.54,30.58-6.78,47,.29,6.12,2.15,10.37,7.82,15,9.73-6.63,20.72-12.76,33.54-7.14,4.93,2.15,9-2.58,13-4,40.17-14.52,81-26.82,121.91-38.65,5.69-1.65,7.64,14.44,17.28,8.38,10.93,14.57,26.44,19.09,42.12,23.87,4.45,1.36,7.17,7.11,6.83,14.28-18,12.25-36.87,23.9-57.24,32.37-9.79,4.07-12.89,15.51-24.78,19.81s-18.48-6.74-25-2.41c-27.3,18.05-58.27,9.45-86.24,18-29.81,9.11-59.24-1.9-88.58,5.29-10.64,2.61-16.84-4.24-21.87-16.36-12.67-30.48-8.85-61.48,1.32-89.53,8-22,7.64-44.37,10.22-65.79,4.27-35.36,8-70.82,12.47-106.24,2.49-19.82-.41-40.81,3.59-61.38,23.42-10.78,46.43-23.28,71.33-22.27,17.58.7,30.65-15.41,48.3-11.11,24.33,5.94,49.31-9.37,73.7,1,10.89,4.61,21.34-2.24,32.19-2.53,28.52-.75,28.39-1.89,41.39,27.28,2.59,5.8,6.49,10.88,9.69,16.13-27.42,39.56-67.66,40.2-106.13,44.84-7.81.94-15.58,2.31-23.39,3.15-18.27,2-35.32,8.24-55.09,5.77-32.31-4-41.5,10.74-40.07,49.35,5.66,5.54,12.74,5.89,19.43,3.67,30.79-10.25,62.89-3,94.14-11.08C2726.4,747.44,2746.25,766.3,2754.71,800.22Z"/><path d="M1668.31,301.61c-15.8,15.76-34.78,16.69-49.51,28.14-4.92,3.82-8.93,3.18-13.19-1.26-3-3.13-6.84-4.55-10.85-1.58-27.32,20.15-57.51,12.94-86.63,13-15.31,0-18.89,4.39-19.68,22.48-.69,16-7.66,32-7,49.16.26,6.4,2.11,10.84,7.76,15.64,9.75-7,20.77-13.42,33.58-7.6,4.92,2.24,9.05-2.73,13-4.24C1576.11,400,1617,387,1658,374.42c5.7-1.75,7.59,15.08,17.25,8.71,10.87,15.2,26.38,19.87,42,24.82,4.45,1.4,7.15,7.41,6.78,14.92-18.09,12.89-37,25.14-57.37,34.09-9.81,4.3-13,16.28-24.87,20.82s-18.46-7-25-2.43c-27.38,19-58.33,10.12-86.34,19.17-29.85,9.65-59.25-1.76-88.62,5.87-10.66,2.77-16.83-4.38-21.82-17-12.56-31.86-8.63-64.31,1.65-93.7,8.06-23.07,7.81-46.47,10.47-68.89,4.4-37,8.29-74.15,12.87-111.24,2.56-20.75-.26-42.7,3.83-64.25,23.46-11.36,46.52-24.53,71.43-23.57,17.58.67,30.71-16.24,48.35-11.8,24.31,6.12,49.36-10,73.72.73,10.87,4.79,21.35-2.42,32.21-2.76,28.53-.9,28.4-2.09,41.3,28.39,2.57,6.07,6.45,11.37,9.63,16.85-27.58,41.5-67.83,42.32-106.33,47.32-7.81,1-15.6,2.48-23.4,3.38-18.29,2.11-35.36,8.76-55.13,6.25-32.31-4.11-41.56,11.39-40.27,51.79,5.64,5.78,12.72,6.13,19.42,3.77,30.84-10.84,62.92-3.36,94.21-12C1640.19,246.47,1660,266.14,1668.31,301.61Z"/><path d="M1156.16,861.56c-4.58,39.38-8.7,74.71-12.8,110-28.92,15.06-33.89,12.86-44.41-17-9.57-27.16-6.08-55.49-7-83.18-1.63-50-2.92-100-3.49-149.92-.34-29.44-10.53-60.67,6.09-90,4.06-7.18,3.68-19.92,10.68-23.88,11.83-6.72,25.24-12.8,39.2-12.73,30.39.17,61,.44,90.16,10.92,5.09,1.83,10.76,3.43,14.83,8.74,7.78,10.16,19.77,14.15,31.09,18.37,29,10.8,45,32.16,46.79,63.1,3,54.16-1.54,106.76-40.11,149.35-6,6.66-6.4,13.7-.72,18.76,15.34,13.66,20.72,34.09,34,49.32,15.17,17.34,11.7,24.9,4,44.84-5,13.05-12,11.75-19.6,9.83-45.43-11.39-77.8-40.5-98.54-82.43-4.35-8.82-6-12.72-16-11.39C1178.73,875.75,1167.34,873.16,1156.16,861.56Zm23.61-193.69c-7,5.93-11.53,15.87-14.17,24-9.47,29.3-3.82,60.82-11.46,90.4-1.44,5.56-3.38,11.31-2.12,16.91,2.83,12.6,23.54,9.72,33.15,10.51,9.07.75,18.23,1.44,27.27.31,53.1-6.62,55.93-82.85,24.27-113.39-5.26-5.07-11.52-9.33-16-15.13-7.21-9.3-16.25-19.92-29.21-18.74A20.86,20.86,0,0,0,1179.77,667.87Z"/><path d="M1148.15,339.57c-5.85,10.09-5.4,21.63-5.24,32.86a342,342,0,0,1-1.55,35.34c-2.21,24.07-7.53,47.94-18.56,69.58-6,11.7-10.65,21-25.92,20.64-13.7-.32-20.43-2.85-23-19.33-6.57-42.82-7.31-84.9,5.07-128-33.73,3.36-65.84,3.24-98.1,1.16-22.68-1.46-45.21,8.4-68.45,1.64-8.63-2.52-13.29,4.83-14.26,12.29-4.25,32.67-22.36,61.41-26,94.29-2.49,22.49-13,39.47-36,45.77-21.42-16.41-26.7-35.72-19.83-61.51,5.24-19.64,8.19-39.69,14-59.57,8.62-29.63,19.45-58.61,27.23-88.47,1.79-6.86.88-15.07,6.34-20.05,14-12.74,17.69-31,26.09-46.61,23-42.88,61.7-69.18,99.18-97.13,31.43-23.43,65-20.9,100-11.43,7.56,2.05,12,5.38,15.6,12.56,10.37,20.54,19.4,41.16,24.1,64.07,3.77,18.37,5.14,37.09,13.49,55.32,4.06,8.85.66,19.38,1.63,28.72a86.21,86.21,0,0,0,5.2,21.25C1151.37,308.74,1151,334.68,1148.15,339.57ZM927.73,294.41c43.37-6.13,83-14.33,122.85-1.65,5.52,1.76,12.1.84,18.1.27,8.73-.83,13.28-8.19,12.26-14.94-4.42-29.31-9.57-58.56-16-87.5-3.4-15.47-17.13-23.07-29.63-15.28-15.54,9.67-34.36,13.07-46.29,30.6C969.71,234.37,939.72,255.37,927.73,294.41Z"/><path d="M1893.65,359c-2.2,16.62-9.47,28.88-21.77,39.8a69.47,69.47,0,0,0-16,20.9c-12.12,24.6-28.38,47.2-45.16,69.76-8,10.77-18.5,17.7-32,16.24-13.08-1.42-26.72-8.24-31.3-19.52-6.68-16.46-12.18-34.88-.89-50.21,6.74-9.15,9.43-19.69,16.69-27.83,22.93-25.69,29.13-57.73,48.76-84.32,13.72-18.59,19.29-40.49,37.88-57.25-26.79-36.68-39.2-76.25-42-117.6-1.18-17.23,0-39.62,19.93-45.54s45.68,29,49.53,49c2.83,14.65,7.65,28.75,27.71,36.57a188.24,188.24,0,0,0,44.65-54.53c12.31-22.78,34.42-37.95,51.43-56.9,7.53-8.4,20.38-4.43,28.84-7,12.2,4.38,12,14.31,20.15,20.16,10.3,7.44,9.51,19.25-2.92,25.48-9.69,4.85-10.77,11.08-11.24,18.45-.71,11-5.1,19.49-13.75,29A427.65,427.65,0,0,0,1971,233c-5.31,8.91-17.19,11.35-20.36,20.87-5.93,17.84-4,35.07,11.36,48.47,19.12,16.64,29.38,37.77,43.71,56.36,16.46,21.36,21.29,49,29,74.3,3,10.07-4.78,19.59-15.39,25.51-11.58,6.47-21,3.81-33.34-3.07-23.16-12.93-39-27.78-48.56-50C1929.58,387.56,1911,373.45,1893.65,359Z"/><path d="M898.81,972.56c-15.35,8.37-23.41-5.12-35.26-11.91-46.8-26.81-50.74-76.47-57.87-120.68-5-30.93,2-65.17,8.81-97.53,6.89-32.7,13.77-65.4,25.09-96.72,9.82-27.18,30.49-46.1,51.8-64.23,14.71-12.53,32.6-9.61,48.29-8.88,27.1,1.26,53.24,10,77,24.69,18,11.08,24.56,27.61,24.08,48.28-.64,27.31-25,45.17-49.65,36.73-3.81-1.3-3.49-3.7-4.26-6-6.73-20.54-27.18-21.61-42-30-9.31-5.27-26.33,8.07-29.43,22.82a78.76,78.76,0,0,1-8.08,22.57c-17.43,31.34-22,65-20.13,100.65,1.06,20.17-2,40.59.75,60.84,4,29.31,13.23,34.89,41.08,26.64,19.87-5.89,36-19.82,56.18-25.33,18.76-5.13,29.78-1.5,37.92,16.38.79,1.73-.23,4.35.62,6,14.72,29,7.2,54.92-21,71.06C970.68,966.3,938.12,982.92,898.81,972.56Z"/><path d="M1553.55,939c-5.2-34.27,12.61-63.38,23.67-92.73,10.24-27.18,13.87-56,25.41-82.66,10.66-24.65,20.17-50.11,25.18-77.07,1.59-8.53,8.39-16,12.59-24.1,3.65-7,8.4-9.81,16.77-9.15,10.74.84,22.27,1.22,32.38-1.9,14.94-4.62,22.73,8,24.16,14.88,3,14.65,12.47,27.65,10.09,44-1.91,13.08,2.72,26.1,7.61,38.25,4.5,11.21-6.46,23,4.34,35,7.69,8.54-2.92,21.62-.22,34.6,7.7,37.11,10.76,75.24,15.63,113a20.79,20.79,0,0,1-.06,3c-.58,21.9-10.23,37.89-23.71,39.3-11.85,1.24-21.71-11.71-25.78-35-1.72-9.82-2.3-19.86-3.37-29.8-2.18-20.25-3.42-21.73-23.48-22.81-7.8-.43-15.68.37-23.51.91-27.92,1.94-27.07,2.26-35.35,29.42-6,19.78-9.6,40.47-20.92,58.57-6.7,10.7-12.68,22.82-26.65,18.31-12.48-4-17.12-15.74-15.52-29.66C1553.73,955.39,1553.35,947.16,1553.55,939Zm117.18-214.68c1.41,14.86-4.88,27-10.11,39.6-5.76,13.92-10.12,28.44-15.67,42.46-3.11,7.84-6.65,16.88,0,22.52,7.1,6,16.19,13.29,26.94,6.56,4.87-3.05,12.25-1.13,16-10.46C1687.9,792.29,1685.94,757.71,1670.73,724.31Z"/><path d="M1405.53,630.12C1423,623.56,1458,635,1485,635a120.79,120.79,0,0,1,36.43,5.21c23.22,7.39,26.34,33.27,6.92,48.76-23.85,19-52.38,18.35-79,12.94-16.38-3.33-21.92,2.33-20.18,14.19,2.12,14.5-15.82,31.23,5.57,44.12,17-10.42,36.83-13.42,57.22-14.62,11.22-.66,20.69,2.12,28.5,10.51,7.34,7.87,4.46,20.55,12.47,28.29.43.43-2.23,6.37-4.27,7-18.57,5.85-32.73,19.95-55.86,18.57-46.55-2.78-58.3,5.66-50.07,60.2,1.33,8.87-2.58,18.31,2,25.74,4.42,3.72,8.84,3.91,12.16,2.28,24.27-11.94,48.21-9.65,72.9-1,14.38,5.07,17.06,15.29,8.27,28.56-24.78,37.43-61.81,34.56-98.51,33.64-5.88-.14-12.75-3.44-17.44-1.31-17.17,7.82-23.61-8.33-31.43-15.92s-8.45-19,.21-32.27c9.42-14.4-.13-34.23,1.88-52,4.41-38.87,1.14-78.17,8.36-117.29,2.84-15.43,5-33.71.15-51C1374.32,664.93,1388.07,636.68,1405.53,630.12Z"/><path d="M1340.24,436.7c2.15,1.43,22,9.93,24.25,24.66s-.42,30.78-2.09,36.75c-1.9,6.81-25.8,2.13-31.28,3.82-14,4.33-30.41,4.84-45.36,2.63-20.1-3-38.21.57-54.85-9.12s-17.47-32.11-16.28-49.61c1.39-20.47,2.33-41.17,7.66-61.82,5.53-21.39,3.13-44.84,4-67.4.11-2.91-2.35-6.39-1.42-8.73,12.62-32,10.05-66.17,14.32-99.32,3.31-25.76,1.9-51.91,11.49-77.1,4.81-12.66,12-21.58,23-26.73,9.23-4.29,17.78-4.85,25,8,9.52,16.8,16.12,31.35,7.21,50.82-6.58,14.38-2.16,31.41-2.64,46.7-1.14,36.16-8.15,71.87-6.45,108.26,1,21.47-7,42.74-3.37,65,1.71,10.56-.68,21.78-6.64,32.32s.19,22.64,11.14,20.95c7.19-1.11,14,1.82,21.06,2.73,5.3.69,10-.73,15-2.38C1337.28,436,1339.13,436,1340.24,436.7Z"/><path d="M2699.27,416.62c28.34-19.23,53.13,9.85,58.51,36.3,4.86,23.86-3.05,45.08-36.63,46.61S2670.93,435.85,2699.27,416.62Z"/><path d="M711.4,899.31c-3.37,1.45-1.8,4.57-1.95,7-.54,8.65.28,17.38-1.85,25.94-1.1,4.39.11,9.34.34,13.86.37,7.3-4.19,14.21-.72,21.53-5.14,6.82-4,15.32-4.89,23.13-.93,8.08-4.57,15.33-5.18,23.43a80.71,80.71,0,0,1-1.56,8.21c-2.16,11.83-9,17-20.78,15.06-2.53-.42-4.41.48-6.59.9-12.45,2.34-25.24,1.39-37.82,2.83-7,.81-14-2.89-21.31-2.66-8,.25-16.07-1.45-24.21.06-4.14.78-8.68-1.11-13.25-.61-8.79,1-17.68,1.82-26.59.76-5.75-.68-11.11,3.47-16.95.68-2.22,4.83-4.63-4.45-7.9,0-1.42,1.94-6.54,1.23-10,1.34-7.44.24-15-.54-22.31.48-13.27,1.85-26.72,1.48-40.05,3.9a105.41,105.41,0,0,1-29.45,1.07c-5.56-.58-11.71,2-17.8,1.78-6.89-.24-13.69.8-20.7-.51-4.35-.81-8.54,2.39-13.28,2.62-6.84.33-13.28,5.15-20.57,1.08-.56-.31-1.73.58-2.63.87a86.3,86.3,0,0,1-26.79,4c-1.2,0-2.79,1.35-3.48.9-5.71-3.69-11,.46-16.42.24-5-.2-10,.57-15.13-.11-7.77-1-15.62.83-23.17,1.94-4.94.72-9.84-.18-14.73.76-4.06.78-8.62-.34-12.94-.91-7-.93-14.55-.4-21.69.3-8.37.81-17.06-.39-25.17,2.58a8.9,8.9,0,0,1-3.92.07c-18.7-2.24-37.05.36-55.52,1.92-4.77.4-10.73,2-15.26-2.49-1.91-1.89-2.65.4-4,.7-3.35.78-7.09,2.77-9.89-1.24-1.94-2.77-4.31.46-5.92-.88-3.31-2.74-7.44-1.6-10.87-3.14-3.12-1.4-7.26-1.77-9.29-3.71-3.77-3.63-7.83-1.26-11.56-2.71-4.77-1.86-8.49-5-11.92-8.49s-4.46-7.35-5-12.58c-.77-8.05-2.5-16.16-3.65-24.31-2-14.51-1-29-1.9-43.41-.81-13.36-1.71-26.93-.83-40,.81-12-6-23.52-1.47-35.21-5.23-10.29.58-20.9-2-31.48s-1.41-21.66-1.18-32.49c.08-3.53-2.18-6.34-2.05-9.69.25-6-1.19-11.9-.32-18.06a51.42,51.42,0,0,0-1.22-18.73c-1.44-6.24-2.89-12.94-.7-19.78,1.9-5.92-.4-12.52-.4-18.84,0-9.7.38-19.35.56-29,.35-18.6-.48-37.28,1.79-55.76-4-6.44-.19-13.16-1.2-19.81a58.08,58.08,0,0,1,0-19.51c.71-3.58-4.91-7.93,1-10.53-3.13-4.22,1.81-8.78-.4-12.42-2.57-4.25.47-8-.66-12.23-.94-3.55.22-8.23-.58-12.23C22.41,549.52,24.87,533.22,23,517c-.52-4.48-1.25-9-2.08-13.35-1.43-7.53-.75-15.06-1.37-22.52-.4-4.88-.06-9.93-.84-15s-.42-10.42-.62-15.61c-.54-14-3.43-27.79-4.52-41.75-.92-11.72.33-23.64-3.23-35.22-.29-1,1.41-1.91.33-3.44-4.57-6.46-2-14.24-4.19-21.31-1.39-4.6,1.69-9.5,0-15.2a69.66,69.66,0,0,1-2.87-25.45c.82-9.67-1.31-18.93-1.72-28.37a2.38,2.38,0,0,0-1.86-2v-10c2.59-.79,2-3.08,2-4.94.16-8.88-.71-18.07.63-26.55,1.25-7.93-.36-16.11,1.92-23.55S2.66,196.85,7.8,190c.82-1.08.06-3.23-1-4.71s-.81-3.11-.47-4.77a158.91,158.91,0,0,0,3.58-30.18,33.13,33.13,0,0,1,.84-6.82c2-8.73,4.77-17.56,4.68-26.4-.15-14.66,1.38-29.09,2-43.61.72-17.22,6.62-33.63,4.9-51.18-.57-5.9,5.11-8.87,9.56-11.68,3.76-2.37,6.06.62,8.33,3.1,1.76,1.92,3.21,1.88,5.89,1.3,12.24-2.67,24.43-5.11,37.4-4,12.54,1.07,25.06-1.48,37.77-1.43a335.72,335.72,0,0,0,41.54-2.49c16.28-2,32.79,1.41,48.89-1.9,1.24-.26,3-.39,3.87.28,4.55,3.44,9.35,1.83,13.74.84,6.4-1.44,12.88-.67,19.29-1.27,7.87-.75,15.85.45,23.72.68,21.69.64,43.38-.58,65.08-.73,7,0,14.27.88,20.95,0a82.44,82.44,0,0,1,18-.24c1.48.13,2.83,1.84,4.47.91,3.72-2.1,7.22-1.25,11.18,0,3.09,1,6.6-6.28,10.09.34,5.06-6.23,12.07-.72,18-2.53,6.51-2,13.58-.86,20.48-2.06,9.58-1.67,20,1,30,1.33,8.14.23,16.44-1.51,24.38-.2,5.3.87,9,0,12.93-2.63l23.71.72c.18,1.53-.48,3.6,2,3.85,12.15,1.27,24.31.6,36.46,1,8.09.3,16.47-.14,24.19,2,13.26,3.63,26.9,3.81,40.2,7.82,11,3.31,23.17,5.83,34.35-.69,2-1.14,4.63-1.2,7-1.43,1.21-.11,3,.07,3.68.86,4.75,5.15,11.71,8.66,12.26,17,.34,5,1.22,10,1.88,14.93,1.62,12.27,0,24.49.18,36.74.19,12.61,1.31,25.28.3,38-.53,6.6-2,13.84.81,21,.81,2.08,1,6.13.67,9.27-.27,2.95,1.31,7.06-1,8.62-4.17,2.85,5.13,5,.05,7.06,2,5.28-1.38,10.47-.55,15.14,1.39,7.94.79,15.69,1.27,23.51.15,2.42-2.25,3.64-1.27,6.43,4.79,13.56.05,27.52,2.67,41.44,1.45,7.7-1.78,16.23-.93,24.52.8,7.76-.64,15.39.39,23.31.8,6.19-.89,12.7-.32,19.4.3,3.49-1.29,7.74-.64,12.07.71,4.73-3,8.69-2.67,13.77.9,15.25-.62,30.53-2,45.49-1.69,18.1,1.54,36.12-.52,54.15-1,8.93.7,18.4.6,27.68-.11,10.09,2.48,20.34.83,30.33-1.75,10.57,1.86,21,.56,31.6-.67,5.48-2,11.73-.13,17.25,2.13,6.33,2,12.58,1.54,18.75-.84,10.39,2.68,20.47,2.17,30.76-.06,1.34.69,2.45,1.2,3.68a43,43,0,0,1,2.94,20.61c-1.09,11.35,2.69,22.18,2.92,33.37.12,6,1.24,12.06,1,18.17-.72,15.51,1.2,31.11,0,46.61-.58,7.71,1.33,15.47.07,23.17-.37,2.26-1,5.34.09,6.85,4.29,5.86,2.71,12.82,2.78,18.53.27,21,2.08,42,.66,62.94-.42,6.15,2.45,11.71,2.08,17.7-.84,13.37-.3,26.78.09,40.18,0,1.43.47,2.58,2,3.07ZM462.24,36.82c-10-4.93-20.87-2.66-31.28-4.43s-21,1.41-31.84,1c-11.35-.47-22.93-1.72-34.42.21-7.95,1.34-16.3-.68-24.52.06-7.17.64-14.38-1.81-21.78-.27-6.27,1.31-12.95-1.12-19.45-.19-5.68.81-11.4,1.7-17-1.17a4.18,4.18,0,0,0-2.71-.14c-7.8,2-15.71,1.46-23.68.72-4.59-.43-9.58-1.42-13.75-.16-9.93,3-20.28,1.9-30.21,2.11A309.57,309.57,0,0,1,177.05,33C164,31.8,150.59,29.92,137.6,31.71c-3.53.49-4.84-4.3-8.54-1.45-5.23,4-12,2-18.08,1.7a18.64,18.64,0,0,0-6.06.32c-5.12,1.28-10.69,1.24-16.08,1.12-11.63-.26-23.23-.28-34.77,1-3.37.37-6.76.57-10.18.85-3.48,8.91,1.19,18.08-.51,27.44-1.46,8,1.58,17,.4,25.76-.7,5.12.42,10.69,1.45,15.93,1.11,5.64.23,11.32.66,16.92.58,7.48.56,15.16,1,22.81A67.19,67.19,0,0,1,44.28,166c-1.52,5.16,3.3,5.37,3.59,9,.36,4.48-4.16,6.09-3.09,10.57,2.95,12.37.47,24.71-.35,37-.52,8-2.38,15.83-2.64,23.8-.31,9.34-1.44,18.6-1.83,27.93-.23,5.64,1.17,12.31-1.05,16.8-4.36,8.78-1.78,17.88-2.77,26.69-1.36,12.09-.32,24.54-.84,36.75-.62,14.76,2,29.33,2,44,0,11.95,4,24,.28,35.88a5.27,5.27,0,0,0,.35,3.89c2.42,3.8,1.83,7.94,1.4,11.75-1.5,13.1,1,26.21.48,39.36-.54,14.06,3.69,28.21,2.49,42.4-.24,2.76,2.6,1.8,2.51,3.19-.11,1.81-3.33,2.13-2.44,4.68a62.57,62.57,0,0,1,3.29,23.81,59,59,0,0,0,1,14.77c2.59,11.64,1.6,23.26,2,34.78a121.15,121.15,0,0,1-1.53,21.86c-1.14,7.46,4.48,14.37,1.39,21.7-.17.42.63,1.21.65,1.83.45,10.28,1,20.56,1.16,30.84.05,2.49-1.92,5.12-.89,7.53,3.78,8.83.65,17.54.74,26.29.14,13.27-.1,26.53.07,39.8.11,8.26,1.71,16.69.77,24.76-1,8.63,1,17,.74,25.55-.19,6.58,1.24,13.26,1,20.13-.23,6.49,1,13.24.54,19.91-.39,5.41-1.08,10.78.86,16.2,2.25,6.32-3,13.26,1.89,19.46-3.68,4.8-.73,10.41-1.43,15.33-1.72,12,3.14,24.32-1.09,36,3.11,7.35,2.37,14.92,2.13,22.53-.32,10,.25,20.18-.61,30.15a68.36,68.36,0,0,0,.55,16.34c.78,4.92,2.18,9.5,1,14.58-.79,3.41,1.89,5.35,5.59,4.77,7.79-1.23,15.57-3.6,23.36-3.4,10.33.26,19.53-4.13,29.87-4.37s20.34-4.7,31.11-2.23a3.79,3.79,0,0,0,2.82-.36c5.75-4.59,12-1.76,18.07-.76,4.85.8,10.1,2.05,14.55,1.76,10.26-.67,20.23,1.59,30.33,1.93,6.91.23,13.8,5,20.76.39.75-.5,2.48.29,3.69.69,8.07,2.62,16.45,2.48,24.36,1.39s15.9,2.52,23.55-.59c10,3.63,20,.92,30,1.19,13.3.36,26.22-1.83,38.92-3.88,18.51-3,37.13-2.47,55.67-3.72,10.36-.7,20.76,1.7,31.23-.57a70.7,70.7,0,0,1,19.61-1c5.09.37,11.13-2.33,14.64.2,5.68,4.1,9.25-1.79,13.91-.38,6,1.81,12.1-.11,18.13,1,5.59,1,10.93-.55,17,1.28,7.93,2.38,16.93.05,25.71,1,10.19,1.12,20.7.79,31.16.1,14-.92,28.49-.1,42.73.92a83.51,83.51,0,0,0,14.14.06c7.91-.78,15.73-1.89,23.78-1.23,7,.58,9.34-2.38,8.65-9.82a61.65,61.65,0,0,1-.43-9c.37-6.46-2.23-12.58-3.13-18.84-.84-5.88,4-11.4-.24-16.93,3.68-3-3.73-5.3-.64-8.46s2.11-7.8,1.92-11.55,2.88-7.73-.5-11.4c3.09-4.7,2.15-10.33,2.87-15.54.63-4.51,2.54-8.6,2.81-13.29.22-3.93-3.25-8.67,1-11.8,5.41-4-3.19-7.74,0-12.16,2.74-3.86-3.62-8.58-.78-13.27,2-3.31,1.7-7.44.76-10.72-1.32-4.6,2.14-9.16-.65-13.23s3.61-8.67-1.28-12.85c-.49-.42.22-5.37.72-8.17,1.09-6.16-1.9-12.17-1-18.45.8-5.71,1.87-12.07.2-17.36-3.65-11.58-1.57-23.19-.8-34.16,1.13-16,.94-32.22,2.57-48.29a439.4,439.4,0,0,0,1.09-71.29c-.9-14.65-.19-29.3-2-44-1.36-10.76-1-22-.82-32.87.25-19.37-.09-38.77,0-58.14,0-12.43-.66-25.07-1.13-37.57-.36-9.63,0-19.38-.36-29.12-.32-9.94,0-20.11-1-29.79-1-9.14-.15-18-.47-27a169.29,169.29,0,0,1,.69-24c.35-3.3-3-6.78-1.55-11,1.31-3.73-.33-7.73-1.32-11.47a12,12,0,0,1,.42-8c1.64-3.28-3.94-3.42-2-6.86,1.44-2.51,1-6.27,1.1-9.49.71-22.53,1.42-45.07,1.91-67.61a29.51,29.51,0,0,1,1.12-8.28c2.33-6.62,1.29-13.18,1.37-19.82.09-8.68,1.31-17.33,1.06-26-.22-7.39.16-14.75-.17-22.05-.25-5.48,1.93-10.66.46-16.2a26.85,26.85,0,0,1-1.19-8.5c.2-4-.49-8.48-.51-12.72,0-7.89-1.28-15.7-1.79-23.54s1.17-15.5-1.73-23.12c-.92-2.43-.64-4.56,1.4-6.28,1.39-1.17,1.93-2.55.18-4-2.47-2-2.51-4.87-2-7.39,1.23-5.78-.54-11.37-.45-17.22-12.7,4.86-15.33,5.22-30.44,4.46a8.53,8.53,0,0,0-3.86.28c-5,2.32-9.94,1-15.17.08-6.32-1.12-12.91-3.82-19.29-.69a2.06,2.06,0,0,1-2.49-.33c-3.59-2.58-7.25,1.5-11.12-.72s-7.8-1.06-11.54.66c-3.52,1.63-6.18-1.66-9.43-2-7.57-.87-15.1-.43-22.57,0-9.72.51-19.41-1.14-28.79-2.62-5.73-.9-11.06,2.45-16.8-.66-2.92-1.59-8.52.68-10.39-1.27-3.82-4-5.23,2-8.07.52-3.6-1.9-7.41-.13-11.13-.29Z"/><path d="M461.18,39.94l2.3.07c-.32,2.28.18,3.64,2.87,4.12,2.86.52,5.22-2.34,7.43-1.41,10.68,4.46,21.57.59,32.39,2.23,9.68,1.47,19.71,1.49,29.57,1.86a194.54,194.54,0,0,1,28.19,3.5c14.93,2.81,30,2.65,44.93,5.14,1.37.23,2.71-1,4.53-.05,7.1,3.85,15,3.59,22.58,4.32,11.29,1.07,16.52,5.44,18.15,16.52A122.77,122.77,0,0,1,655,89.8c.36,10.78,1.38,21.64.62,32.32-.39,5.32,1.36,10.1,1.26,15.13-.16,8.42-.78,16.75-.59,25.26.36,16.23.8,32.52.83,48.77,0,3.49-2.66,6-1.94,9.54,3.07,15.16,1.5,30.34,1,45.46-.46,14.34-2.43,28.59-2.78,42.93-.87,35.74-2.49,71.45-1.49,107.27.56,20.41.42,40.85,2,61.2,1.31,16.68,3.92,33.3,3,50-.57,10.47.07,20.94.14,31.41,0,6.27-.34,12.5.67,18.9.89,5.63-3.31,11.52.4,17.43-2.53,15.66-1.22,31.53-.56,47.29.35,8.4-2.4,16.78-.23,24.88a48.58,48.58,0,0,1,1.36,18.73c-.79,6.44.12,12.69.25,19,.33,16.24,1,32.49,0,48.69-.61,10.26-.14,20.56-.74,30.86-.59,10.05.88,20.13-.33,30.5-1.09,9.4.74,19.63.88,29.47.23,17.09.92,34.2.33,51.29-.39,11.19-1.95,22.2-2.76,33.32-.9,12.55-1.27,25.13-1.38,37.73,0,4.18-1.1,8.45,2.28,12,.73.77,1.38,1.44-.08,1.77-4.4,1-2.57,3.84-2.35,6.8.61,8.11-3.21,11.91-11,10.74-3.84-.57-7.09.88-10.63,1.17-1.94.16-3.67.86-5.58-.29-2.41-1.44-4.39-2.15-6.52,1-1.82,2.66-3.57-4-7.15-.89-2.77,2.44-7.61,1.84-11.66,2.07-6.83.38-13.62,1.35-20.46,1.62-17.33.69-34.65,2.24-52-1.59-9.8-2.16-19-1-26.63,6.11a8.82,8.82,0,0,1-6,2.74c-7.69.37-15.43.67-23,1.73-12.22,1.71-24.52.07-36.77.24-20.43.27-40.9-.42-61.36-1.08-5.81-.19-12.22,2-17.07.32-10.34-3.53-21,.67-30.93-3.9-13.72,3-27.69-.74-41.46.37-6,.49-12.57-1.55-17.78-.1-9.42,2.63-19.37-4.61-28.08,1.77-4.87-4.48-10.21-.16-15.47-1.08s-11.21.34-16.82-.2c-3-.29-5.8.55-8.92.12-2.69-.37-6.73-.56-9.3,1-2.85,1.69-5.61-2.19-8.12.65-2,2.25-6.19-4.86-7.66,1.35-1.91-2.74-4.72-2.25-7.35-2.23-8.73.07-17.6-.66-26.14.57-8,1.14-16.81-4.77-24,2.26-.16.16-1.2-.31-1.58-.72-2-2.22-4.48-1.2-6.6-1.66-5.26-1.13-10,1.78-14.92.26-7.48-2.32-15-2.44-22.64-2.22-3.76.11-9.59-4.52-8.66-7.8,1.59-5.57-.33-10.85-.25-16.24.18-12.05-.57-24.18.23-36.16.58-8.72-1.87-17.14-1.28-26,.51-7.55,1.55-15.85.17-22.92-1.62-8.25,5-16.62-1.78-24.22.7-6.09.21-12.29.52-18.31.51-9.91-2-19.72-.68-29.56.61-4.78,1.72-10,.58-14.47-2.38-9.43-2.27-18.91-1.42-28.06,1.27-13.63-.77-27.15-.55-40.72.34-20.46-2.09-41-3.14-61.45-.47-9.13-1.62-18.78-.93-27.45s-2-17.53.2-26.28,0-17.75,0-26.65c.08-27.28,1-54.53-.49-81.84-.32-6.13-2.06-12.51-1-18.31s.47-12,.25-17.57c-.36-9-1.43-18.44-.69-27.2.78-9.28-.61-18.39-.16-27.59.89-18-.45-36.16.65-54.11.62-10.14,1.08-20.32,1.38-30.45.32-10.55,0-21.21.46-31.74.44-11.3.22-22.68.29-33.93.09-14,.73-27.93,1.22-41.88.47-13.43,1.51-26.83,2.17-40.25.28-5.77.09-11.57.38-17.34.41-8.09,1.18-16.16,1.58-24.25.27-5.26-.11-10.46,1.81-15.61,2.2-5.88,1.11-12.58,1.11-18.7,0-7.2-.44-14.4.22-21.66.46-5.12,1.24-10.87.14-15.4-1-4.32,2.39-6.74,1.77-8.36-2-5.27.88-6.28,4.22-7.87,1.06-.5,2.44-2,2.35-2.9-.39-4.21,3-5.4,5.37-5.82,5.83-1,11.24-3.39,17.2-4.13s11.81-.56,17.67-1.14c11.23-1.12,22.14-4.94,33.72-3.17.91.14,1.87-.43,2.83-.54,8.21-1,16.42-1.55,24.74-1.76,6.42-.16,13.25,1.17,19.24-.64,7.56-2.27,15.08.15,22.39-1.06a72.75,72.75,0,0,1,20.86-.67c14.94,2,29.51-1.63,44.44.42,10.25,1.41,20.83-.3,31.26-.72,6.8-.27,13.6-1.28,20.39-1C341.6,44.92,351,42,360.61,43c11,1.18,21.77-4.26,32.81,0,8.09-3.94,17.22,2,25.3-2,12.76,3.53,25.8-.2,38.61,2.73C460.07,44.37,461.81,43.21,461.18,39.94ZM637,82.66c-7.61-7.26-16.81-5.2-24.64-5.5-9.41-.36-18.57-5.71-28-2.33-4-4.81-8.88-.41-13-1.76-4.81-1.58-9.71-1.33-14.39-2.43-9.08-2.12-18.28-1.37-27.38-2.44-8.53-1-17.63-1-26.11-2.18-10.64-1.52-21.11-1.18-31.64-1.7-10.69-.53-21.36-2.31-32.08-1.1-3.22.36-6.66-.62-9.84-.09s-6.7-3.4-9.26.84c-.85-5.52-5.13-2.12-7.53-2.73-5.8-1.5-11.92,2-17.89-.92-3.78,3.55-8.21,1.55-12.57,1.69-6.37.2-12.7-.78-19.05-.27-11.59.95-23.19,1.84-34.82,2.12-11.86.28-23.66,1.12-35.63.63-10.9-.45-21.79,3.39-32.92.26-20.67,3.18-41.6,1.87-62.4.86-6.52-.31-12.53,1.47-19,1.32s-13.58-1.65-19.65.16c-7.59,2.27-15.51,2.22-22.85,2.19C122.25,69.22,108.84,74,94.73,73c-1.84-.13-2.86,1.26-4.24,2.06-2.83,1.63-6.45.87-9.31-1.59-1.14-1-3.13-1-2.77.37,1.41,5.2-.27,10.1-.35,15.12-.11,6.15,1.84,12.34,0,18.46-.45,1.51-.56,4.15.79,4.65,3.12,1.15,1.94,2.68,1.16,4.39-2.67,5.89-2.22,12.26-2,18.52.4,14.17-.15,28.33-.49,42.43-.23,9.53-1,19.32-1,28.81.07,13.4-5.25,26.4-1.43,40-3.65,3.21-1.26,7.37-.87,10.92.42,3.76-2.86,7.84,1,11.31-4.8,2.5-1.38,6.85-1.94,10.31-.87,5.35.54,10.71-.68,16.34-1.05,4.84-.79,10.65,0,16.22,1.48,11-3.27,22.1.8,33.24-2.5,14.13-2.54,28.46-2.52,42.83,0,6.31-2.84,13.07-2,18.65,1.55,10.09.1,19.75-.13,29.52-.15,6.4-.74,12.64.87,19,.33,1.28.74,2.84.32,3.94-4.11,11-.37,22.65-1,33.94-.5,9.15.09,19,.81,28.49,1.11,14.76.12,29.61.42,44.43.07,3.21-1.32,6-.82,9.39,2,13.11,0,26.22.46,39.36.32,9.55-1.6,19.18-.65,28.63,1.38,13.74-1.51,27.59,2.5,41.21.23.75-.37,1.87-.85,2.65-.83,1.33-2.68,2-2.54,4,.19,2.66,2.82-.49,3.43,1.5.69,2.28-1.72,3.53-1,6.36,3.06,12.74,1.26,25.72,1.84,38.6.23,5.21-1.32,10.56.48,15.72s.25,10.45.41,15.57c.27,8.69,2.6,17.33,1.68,25.87a37.75,37.75,0,0,0,.35,8.27c.88,8.78,1.61,17.61.85,26.49A104.46,104.46,0,0,0,76.45,845c.51,7,1.27,14,1.53,21,.2,5.32-1.45,10.43-1.54,15.53-.09,4.95,1.63,10.11,1.53,15.29-.11,5.35.54,10.81-.21,16-.62,4.39-.27,8.81-.13,13,.4,12,1,24.11-.15,36-.5,5.17,2.56,9.84.87,14.59-1.8,5-.86,9.8.41,15,1.8-1.34,3.44-1.88,5.06-1.46,7.41,1.92,14.79.33,22.17.67,8.93.4,17.84-2.35,26.79.67a3.86,3.86,0,0,0,2.9-.08c5.21-3.26,11-.86,16.55-1.4,5.92-.57,12.23,1.37,18,.43,19.84-3.19,40-1.06,59.91-2.83,8.52-.75,17.14-1,25.57.89,4.54,1,8.4-1.46,12.71-.68,6.35,1.14,12.78.83,19.17,1.36,8.86.73,17.63-.71,26.55.13a259.26,259.26,0,0,0,28.43.57c9-.15,18.25,3.34,27.11-.43,13.49,3.79,26.8-.61,40.26.31,14.35,1,28.77,1.47,43.1,1.1,10-.25,20.24.28,30-1.17,15.51-2.31,31.15-2.84,46.73-4.07,6.39-.51,13-.69,19.19-1.48,14.12-1.79,27.74-6.86,42.43-4.9a5.7,5.7,0,0,0,3.77-.6c4.89-3.48,10.44-3.13,16-2.74s11.22-1.79,16.93.45c2.79,1.1,5.81,2.06,9.09.7,0-5.57-.09-11.25,0-16.92.07-3.2,1.93-7.54.49-9.35-5.29-6.67.61-13.81-2.39-20.28,4.28-6,.24-13.46,2.73-20A18.59,18.59,0,0,0,639,903c-.7-11.07.43-22.11,0-33.27-.46-11.36.31-22.83.27-34.27,0-8.8.24-17.6-.07-26.39-.29-8.15,4.58-16.43-1.2-24.45,4.28-4.8.41-10.68,1.56-16a53.91,53.91,0,0,0,1-17.13c-1.63-13.2-.59-26.25-1.26-39.36-.57-11.24-1.53-22.53-1.14-33.72.19-5.55-.76-11-1.17-16.34-.79-10.53.16-20.87.28-31.29.15-13.91,0-27.83,0-41.74,0-9.46-.89-19.06.24-28.35s-1-18.54.13-28c1-9.13.18-18.86-.6-28.26-.37-4.53,2.19-8.13.86-13.23-2.5-9.57.82-19.84-2.24-29.69,4.16-17.24.18-35.13,2.41-52.6.49-3.89-.46-8.08.81-12.33,1.21-4.05-5.22-8.63-.3-13.06-1-13.93-.48-27.78.08-41.69.38-9.29-2.1-18.81-.18-28.19-4.15-2.62,1.82-4.65.23-7-2.6-3.76-1.37-7.83-1.36-11.7,0-10.35.6-20.68.73-31,.12-9-.66-18,.13-27.08.42-4.92-.08-10.29-.27-15.45-.16-4.54-.52-9.07-.76-13.6-.18-3.46-1.32-7,.22-10.19,1.64-3.44,1-7.07,1-10.57-.12-9.21-1.07-18.45-1-27.65.09-10.75,1-21.45,1.11-32.22C638.68,112.49,637.51,97.73,637,82.66Z"/><path d="M313.89,454.81c-4.41,3.19-8,4.82-10.13,7.55-2.94,3.71-8.26-1-10.83,4.24-1.82,3.69-6.27,5.85-8.22,9.84-7-3.16-5.26,7.86-11.31,6.8-5.27-.93-9.09,3.42-13.73,4.89-12.32,3.89-22,12.6-33.53,18-3.26,1.53-5.19,5.35-7.18,9-4.83,8.86-7.4,18.6-12.73,27.39-7.5,12.37-12.66,26.2-20.64,38.46a1.58,1.58,0,0,0-.22,1,11.85,11.85,0,0,1-3.74,9.84c-1.9,1.79-5.63,1.06-7.78,3.54-8.23-10-5.46-20.12-1.25-29.73,2.72-6.2,5.91-12.14,6.7-18.94.62-5.27,6.73-8.73,4.73-14.79,5.86-14.64,7.59-30.32,11.48-45.46,3.22-12.55,6.09-25.42,11.29-37.18a154.58,154.58,0,0,0,9-25.34c3.58-14.39,10.11-27.57,15.76-41.1,2.17-5.21,5.71-9.82,6.8-15.57.75-3.93,3.26-7.33,2.26-11.92a9.32,9.32,0,0,1,2.52-7.18c4.77-4.68,5.55-11.27,6.09-17.27.4-4.42,6.89-6.8,3.41-12,4.27-3.8,3.46-10,6.27-14.11,4-5.89,3.44-12.57,5.06-18.82.38-1.47.42-3.08,1.34-4.4,5.16-7.4,6.31-17.07,13.26-23.45-.79-5.73,4.75-9.52,4.89-14.62.22-8.58,6.47-14.1,9.66-21.11,3.57-7.86,9.63-14.56,13.47-22.33,4.54-9.19,9.25-17.41,15.24-22.85,2.36-2.14,12.73-4.05,15.21-2.33,4.25,2.94,7.59,7,6.12,12.42-.81,2.93.33,5.22.86,7.43,2.24,9.27.31,18-1.74,26.94-.8,3.5-1.19,7.53-.27,10.92,2.18,8.07,0,15.92-.06,23.86-.07,9.58,0,19.17.06,28.76.17,27.72,2.62,55.35,3.34,83,.17,6.57,2.07,13.55-.13,20.08-1.1,3.29,3.45,3.7,2.38,6.48,2.16.51,3.75-.26,5.35-1.79,7.35-7.05,16.82-10.85,25.3-16.19,4.57-2.88,7.54-7.53,11.58-10.89,7.13-5.92,7.8-13.44,6.24-21.49-1-5.4,1.34-10.27,1.64-15.46.38-6.72-.76-13.86,2.44-20.27.19-.37,1.41-.69,1.06-1.37-4.6-8.82,3.93-16.88,1.46-25.55,3.85-4.76,4.21-12,10.76-14.84,7.52,4.43,8.18,4.92,5.31,11.82-2.21,5.31-.95,10.61-1.3,15.8-.24,3.48-4.09,6.7-1.28,10.21,3.08,3.84.44,7.92,1,11.81,1.39,9.36-2,18.83-.53,27.75,1.39,8.46,0,16.74,1,25.12.79,7,.58,14,3.65,21.72,5.89-9.36,12.94-17.33,13.88-28.45,0-.49-.38-.95.1-1.68,9.66-14.78,12.91-32.06,17.7-48.55,2.78-9.54,4.12-19.8,5.73-29.81,1.22-7.52-.12-15.53,4.56-22.84,2.72-4.25.54-10.66,2.26-16,1.37-4.23,4.19-7.91,7.9-7.1,2.56.56,4.17,3.91,4.64,6.37.74,3.88.42,8,.23,12-.26,5.15,1.79,9.6,3.54,14.22,1.52,4,4.82,4.55,6.67,1.78,4.26-6.37,12.31-9.76,13.92-18.13.83-4.33,4.16-7.4,6.34-11,1.88-3.13,4.59-5.68,3.83-9.82a3.93,3.93,0,0,1,.52-2.88c1.89-2.31,4.17-4.31,6-6.65s-4.25-4-.55-6.91c2.24-1.8,3.12-5,4.68-7.46,2-3.2,2.14-7.61,3.56-11.06,3.62-8.8.6-19.13,6.84-27.18,1.37-1.76,1.81-4.52,4.93-3.66,2.56.71,2.27,2.68,2.93,4.92,1.94,6.54,1.43,12.41.73,19.11S539.37,203.52,539,210c-.42,7.65-3.91,14-6.51,20.57-1,2.53,2.47,4.77-.35,5.67-4,1.29-1.76,4.89-3.22,7.08s-1.82,5.24-3.62,6.89c-2.49,2.31-2.47,5.33-3.7,7.95s-2.79,5.24-3.9,8c-1.69,4.16-6.84,6.62-7.49,10.17-.92,5.07-5.27,5.94-7.69,7.61-3.71,2.56-7.64,6-13.88,5.2A43.23,43.23,0,0,1,474.82,285c-.88,9.19-2.31,17.89-2.32,26.59,0,5.47-.83,11-2.8,15.44-3.43,7.72-2.88,16.3-6.56,23.7-4.28,8.6-2.43,19.21-9.07,27a6.84,6.84,0,0,0-1.91,4.49c0,8.24-6,13.74-10.32,19.55-2.84,3.8-4.3,8.48-8.41,11.76-5.66,4.53-10.95,7-18.42,5.72s-11.21-6.92-14.67-12.28c-2.47-3.84-5.31-8.3-3.61-13.79.91-2.91-.56-5.58-3.22-7.45-5.31,1.05-8.59,4.71-12.13,8.56a48.87,48.87,0,0,1-13.11,10.4c-5,2.55-6.25,10.41-13.58,9.14-3.28,8.37-11.65,13.78-9.59,25.53s0,24.6-2.14,36.63c-.73,4.08-.29,8.1-.71,12-1.42,13.29-1.27,26.86-1.09,40.13.15,11.36-1.29,23.29,2.42,34.57-3.52,6.81,2.35,13.89-.5,20.57-1.5,3.53,4.17,4.87,2.38,6.59-5,4.89-.08,9,.28,13.32.86,10.47-2.36,21.15,1.54,31.46-4.63,5.34,0,11.36-1.2,17.13s-1.13,11.76-1.85,17.66c-1,8.09-2.28,16.88,1,24.68,1.83,4.4-3.42,3.82-3.05,8,1,11.05-1.34,22.23-3.82,33.18-.51,2.23-.29,4.63-.54,6.93-.59,5.26,2.61,11.1.89,15.3-2.25,5.46,0,10.24-.87,15.22-1.12,6.41-.74,12.89-3.38,19.3-1.9,4.6-.94,10.57-.51,15.87a75.05,75.05,0,0,1-.67,14.3c-1.09,9.88-3.4,19.87-.74,29.73a10.29,10.29,0,0,1-1.05,7.27c-3.51,6.64-2,13.45-2.37,20.25-.15,2.88.85,7.27-4.76,7.34-4.71,0-10.87-2.68-10-5.81,2-7.72-4.2-13.69-3.26-21.23.32-2.54-1.32-6.28-1.21-9.53.42-12.77-1.51-25.41-2.4-38.08a289.48,289.48,0,0,1-.4-35.35c.51-9.9-.18-20.14,1.06-30,1.43-11.38.4-22.77,1.54-34.12.37-3.6,2.88-5.37,3.39-8.62,1.05-6.74-.07-13.62,1.57-20.22,2.87-11.57.09-23.46,2.51-35.22,1.06-5.16.36-11.45,0-17a73.79,73.79,0,0,1,.65-12.76c1.62-14.67-1.9-29.48,1.28-44.09-4.88-9.59,1.6-20.38-3.19-30,2.54-15.25-1.28-30.34-1-45.5.11-5.77,1.17-11.6.88-17.43C315.32,473.21,314.58,464.61,313.89,454.81Zm4-194.38c-5.36,13.44-9.61,24.75-14.39,35.84-3.92,9.11-5.62,18.85-8.76,28.17-5.8,17.19-11.95,34.27-17.47,51.55-1.07,3.36-6.14,5.9-2.75,10.45-6.74,5.21-4.54,15.12-10.84,20.57-4.48,17.3-15.3,32.16-19.09,49.76a15.25,15.25,0,0,1-4.18,7.67c-3.68,3.36-4.52,7.81-7.31,12.09,7.19-.5,7.85-7.28,12.76-9.65,6.09-2.94,11.61-7.44,16.7-12,4.69-4.22,9.53-8.3,14.11-12.49,4.26-3.9,8.52-8.15,13.54-10.08,5.42-2.07,7.73-7.43,13.21-9.24,9.77-3.21,12-7.83,11.74-17.79-.32-11.81,0-23.65.09-35.47.11-12.29.92-24.61.2-36.84-.28-4.77,1.85-8.77,1.65-13.19-.54-12-1.07-23.9,1.9-35.7a11,11,0,0,0,0-4.33c-3.81-5-1.24-9.65.4-14.41C319.71,264.62,319,263.59,317.93,260.43Z"/></g></g></svg>